<svg width="32" height="33" viewBox="0 0 32 33" fill="none" xmlns="http://www.w3.org/2000/svg">
<g filter="url(#filter0_i_201_7729)">
<rect width="31.3962" height="33" fill="white"/>
<path d="M18 8.25C18 9.38909 17.1046 10.3125 16 10.3125C14.8954 10.3125 14 9.38909 14 8.25C14 7.11091 14.8954 6.1875 16 6.1875C17.1046 6.1875 18 7.11091 18 8.25Z" fill="#576177"/>
<path d="M18 16.5C18 17.6391 17.1046 18.5625 16 18.5625C14.8954 18.5625 14 17.6391 14 16.5C14 15.3609 14.8954 14.4375 16 14.4375C17.1046 14.4375 18 15.3609 18 16.5Z" fill="#576177"/>
<path d="M18 24.75C18 25.8891 17.1046 26.8125 16 26.8125C14.8954 26.8125 14 25.8891 14 24.75C14 23.6109 14.8954 22.6875 16 22.6875C17.1046 22.6875 18 23.6109 18 24.75Z" fill="#576177"/>
</g>
<defs>
<filter id="filter0_i_201_7729" x="0" y="0" width="31.3962" height="33" filterUnits="userSpaceOnUse" color-interpolation-filters="sRGB">
<feFlood flood-opacity="0" result="BackgroundImageFix"/>
<feBlend mode="normal" in="SourceGraphic" in2="BackgroundImageFix" result="shape"/>
<feColorMatrix in="SourceAlpha" type="matrix" values="0 0 0 0 0 0 0 0 0 0 0 0 0 0 0 0 0 0 127 0" result="hardAlpha"/>
<feOffset dy="-1"/>
<feComposite in2="hardAlpha" operator="arithmetic" k2="-1" k3="1"/>
<feColorMatrix type="matrix" values="0 0 0 0 0.878431 0 0 0 0 0.886275 0 0 0 0 0.901961 0 0 0 1 0"/>
<feBlend mode="normal" in2="shape" result="effect1_innerShadow_201_7729"/>
</filter>
</defs>
</svg>
