<svg width="24" height="25" viewBox="0 0 24 25" fill="none" xmlns="http://www.w3.org/2000/svg">
<path d="M14 4.25C14 5.38909 13.1046 6.3125 12 6.3125C10.8954 6.3125 10 5.38909 10 4.25C10 3.11091 10.8954 2.1875 12 2.1875C13.1046 2.1875 14 3.11091 14 4.25Z" fill="#576177"/>
<path d="M14 12.5C14 13.6391 13.1046 14.5625 12 14.5625C10.8954 14.5625 10 13.6391 10 12.5C10 11.3609 10.8954 10.4375 12 10.4375C13.1046 10.4375 14 11.3609 14 12.5Z" fill="#576177"/>
<path d="M14 20.75C14 21.8891 13.1046 22.8125 12 22.8125C10.8954 22.8125 10 21.8891 10 20.75C10 19.6109 10.8954 18.6875 12 18.6875C13.1046 18.6875 14 19.6109 14 20.75Z" fill="#576177"/>
</svg>
